:SAMPLES-PER-SECOND 30
:FULLY-SPECIFIED
:DEGREES
50
root  22.961 37.8717 -3.13769 -36.2741 -85.037 31.3006
RightUpLeg  -22.3345 -5.08243 -1.08009
RightLeg  6.02095 -0.0405088 1.03452
RightFoot  -5.01764 -0.552128 9.34356
RightToes  6.35927e-011 1.30204e-014 -6.03759e-014
Spine  6.65401 -1.82352 -5.20589
Spine1  8.93716 -1.84533 -1.36142
HEad  -11.9606 2.90765 -4.27172
LeftShoulder1  -0.238654 4.2222 -27.0192
LeftArm  -3.70015 -9.03389 -56.453
LeftForeArm  33.8033 -2.46208 -8.22188
LeftHand  0.0395244 6.94057 5.28751
RightShoulder  -0.63427 -5.56681 24.0163
RightArm  12.7214 -14.5004 52.0712
RightForeArm  19.2581 13.4711 5.46084
RightHand  -0.0852839 1.89639 -1.52619
LeftUpLeg  11.9053 6.53472 -5.55861
LeftLeg  15.3492 2.38666 0.767668
LeftFoot  -22.3858 0.726316 6.10897
LeftToes  -7.16024e-010 4.79583e-011 -5.98286e-011
51
root  21.8678 37.6474 -2.87468 -31.2971 -84.3832 26.7751
RightUpLeg  -22.8375 -5.08557 -0.773927
RightLeg  6.90741 -0.378938 0.895647
RightFoot  -5.09825 -0.516475 8.79677
RightToes  6.35927e-011 1.30204e-014 -6.03759e-014
Spine  5.85357 -2.05586 -4.29953
Spine1  9.48915 -2.04072 -1.39932
HEad  -12.5966 2.64311 -4.89196
LeftShoulder1  -0.218379 4.15631 -27.2743
LeftArm  -2.80534 -9.28853 -58.0229
LeftForeArm  34.3449 -3.43779 -8.70202
LeftHand  0.0478969 6.95604 5.78747
RightShoulder  -0.620107 -5.5209 24.006
RightArm  14.0401 -14.3689 51.6105
RightForeArm  19.8134 13.2821 5.76946
RightHand  -0.0565538 1.69691 -1.08106
LeftUpLeg  13.6373 6.71749 -5.37456
LeftLeg  14.833 1.31353 0.468679
LeftFoot  -23.3987 0.823492 6.46009
LeftToes  -7.16024e-010 4.79583e-011 -5.98286e-011
52
root  20.7149 37.4774 -2.63178 -21.5177 -83.4858 17.5509
RightUpLeg  -23.5425 -5.50637 0.0543559
RightLeg  9.4322 -0.503971 0.647293
RightFoot  -3.11545 -0.445431 6.04418
RightToes  6.35927e-011 1.30204e-014 -6.03759e-014
Spine  5.23841 -2.44257 -3.20748
Spine1  9.77691 -2.59732 -0.723068
HEad  -12.9899 2.41639 -5.52572
LeftShoulder1  -0.218559 4.15141 -27.5593
LeftArm  -2.25849 -8.90215 -58.9139
LeftForeArm  33.6951 -4.67483 -9.03868
LeftHand  0.052793 6.9107 6.2716
RightShoulder  -0.630281 -5.5443 24.1588
RightArm  14.1167 -13.931 50.6378
RightForeArm  19.9886 12.7237 5.92947
RightHand  -0.0538967 1.3361 -1.06117
LeftUpLeg  15.4583 6.61597 -4.59237
LeftLeg  13.9824 -0.139913 0.360021
LeftFoot  -24.3743 0.825121 5.9379
LeftToes  -7.16024e-010 4.79583e-011 -5.98286e-011
53
root  19.5166 37.3753 -2.41636 -10.5439 -82.5828 7.13646
RightUpLeg  -24.7514 -6.0137 1.44371
RightLeg  13.2472 -0.245522 0.22744
RightFoot  0.783081 -0.194347 1.90495
RightToes  6.35927e-011 1.30204e-014 -6.03759e-014
Spine  5.01786 -2.75943 -1.92157
Spine1  9.7155 -3.24016 0.54589
HEad  -13.3153 2.30719 -6.27687
LeftShoulder1  -0.237375 4.20042 -27.8984
LeftArm  -1.82533 -8.24091 -59.1825
LeftForeArm  32.8623 -5.90418 -9.25434
LeftHand  0.0506118 6.8123 6.46909
RightShoulder  -0.665252 -5.64136 24.416
RightArm  13.0099 -13.0646 49.3313
RightForeArm  19.9142 11.793 5.90638
RightHand  -0.0713015 1.09307 -1.38741
LeftUpLeg  17.1315 6.31254 -3.25204
LeftLeg  13.3479 -1.65912 0.380546
LeftFoot  -24.7653 0.702187 4.69351
LeftToes  -7.16024e-010 4.79583e-011 -5.98286e-011
54
root  18.2417 37.2814 -2.21958 -0.474884 -82.127 -2.70767
RightUpLeg  -26.0184 -5.83763 2.92165
RightLeg  18.1247 -0.0417412 -0.241901
RightFoot  3.67913 0.175311 -1.19174
RightToes  6.35927e-011 1.30204e-014 -6.03759e-014
Spine  5.19264 -2.82285 -0.293225
Spine1  9.65921 -3.57985 1.66207
HEad  -15.1117 3.88904 -7.02565
LeftShoulder1  -0.230207 4.17479 -28.14
LeftArm  -1.5551 -7.51428 -58.95
LeftForeArm  32.2836 -7.06601 -9.21018
LeftHand  0.040138 6.65235 6.28222
RightShoulder  -0.687122 -5.69859 24.6163
RightArm  10.7832 -11.6777 48.1394
RightForeArm  19.558 10.5497 5.5619
RightHand  -0.0887975 1.10704 -1.70075
LeftUpLeg  18.6443 5.81204 -1.67875
LeftLeg  13.9738 -2.52555 0.367404
LeftFoot  -24.419 0.520758 3.26179
LeftToes  -7.16024e-010 4.79583e-011 -5.98286e-011
55
root  16.8925 37.1823 -2.02277 8.89069 -82.0725 -12.3082
RightUpLeg  -26.3815 -4.72807 3.94024
RightLeg  23.044 -0.630225 -0.511727
RightFoot  3.2844 0.361285 -2.65407
RightToes  6.35927e-011 1.30204e-014 -6.03759e-014
Spine  5.60982 -2.79465 1.78583
Spine1  9.90112 -3.61627 2.14202
HEad  -16.1898 3.59846 -7.35745
LeftShoulder1  -0.168554 3.99465 -28.1658
LeftArm  -1.65663 -6.63543 -58.12
LeftForeArm  31.6295 -8.08882 -8.96266
LeftHand  0.0250983 6.42313 5.92801
RightShoulder  -0.66276 -5.6161 24.6727
RightArm  8.0004 -9.87288 47.4413
RightForeArm  18.4598 9.06051 4.86481
RightHand  -0.105022 1.19761 -1.97302
LeftUpLeg  20.029 4.68484 -0.317378
LeftLeg  16.0654 -2.36114 0.0920206
LeftFoot  -23.7258 0.242679 0.936312
LeftToes  -7.16024e-010 4.79583e-011 -5.98286e-011
56
root  15.554 37.125 -1.82535 17.361 -81.9858 -21.0365
RightUpLeg  -25.8525 -4.15832 5.01823
RightLeg  26.8212 -0.930762 -0.738395
RightFoot  0.624189 0.385361 -3.64224
RightToes  6.35927e-011 1.30204e-014 -6.03759e-014
Spine  6.0817 -2.89218 4.19519
Spine1  10.1176 -3.55557 2.23309
HEad  -16.8175 3.59361 -7.48906
LeftShoulder1  -0.0886438 3.76262 -28.0907
LeftArm  -1.97659 -5.51424 -56.6293
LeftForeArm  30.568 -8.75014 -8.7256
LeftHand  0.0167154 6.26319 5.82802
RightShoulder  -0.614084 -5.46212 24.6252
RightArm  5.68818 -7.97816 47.1981
RightForeArm  16.4282 7.64469 4.08506
RightHand  -0.138935 1.34143 -2.52634
LeftUpLeg  20.2944 3.30971 0.885425
LeftLeg  20.0495 -2.32131 -0.658336
LeftFoot  -22.4428 -0.176409 -3.21783
LeftToes  -7.16024e-010 4.79583e-011 -5.98286e-011
57
root  14.296 37.1139 -1.64566 24.0432 -81.5529 -27.5039
RightUpLeg  -25.2571 -3.93922 6.0298
RightLeg  29.4074 -1.29245 -1.0268
RightFoot  -2.17671 0.350609 -4.54577
RightToes  6.35927e-011 1.30204e-014 -6.03759e-014
Spine  6.46498 -3.09394 6.59352
Spine1  9.82508 -3.42742 2.37401
HEad  -16.581 3.97756 -7.4594
LeftShoulder1  -0.046543 3.63944 -28.063
LeftArm  -2.52439 -4.28589 -54.8324
LeftForeArm  29.5998 -8.98663 -8.54745
LeftHand  0.023624 6.35282 6.10931
RightShoulder  -0.583909 -5.37167 24.5075
RightArm  4.34858 -6.3919 47.1036
RightForeArm  14.4144 7.06603 3.62538
RightHand  -0.190119 1.66344 -3.28611
LeftUpLeg  17.7675 3.05155 2.52296
LeftLeg  27.5649 -4.0221 -1.95745
LeftFoot  -18.4144 -0.365368 -7.94456
LeftToes  -7.16024e-010 4.79583e-011 -5.98286e-011
